<svg width="593" height="111" viewBox="0 0 593 111" fill="none" xmlns="http://www.w3.org/2000/svg">
<path d="M419.52 35.7437V35.8842C419.514 36.0216 419.536 36.1587 419.585 36.2874C419.633 36.4161 419.707 36.5339 419.801 36.6337C419.992 36.8118 420.243 36.9121 420.505 36.9148H430.667C430.797 36.9175 430.927 36.8941 431.048 36.8458C431.169 36.7975 431.278 36.7254 431.371 36.6337C431.546 36.4227 431.646 36.1586 431.652 35.8842C431.619 35.1693 431.656 34.4529 431.762 33.7451C431.872 32.5236 432.339 31.3614 433.106 30.4036C433.15 30.3755 433.188 30.3382 433.216 30.2943C434.403 29.1789 435.35 27.8341 436 26.3417C436.651 24.8493 436.991 23.2403 436.999 21.6127C437.056 20.0814 436.803 18.5543 436.255 17.1229C435.708 15.6914 434.877 14.3849 433.812 13.2815C432.747 12.1781 431.471 11.3004 430.059 10.7009C428.647 10.1014 427.128 9.79241 425.594 9.79241C424.06 9.79241 422.541 10.1014 421.129 10.7009C419.717 11.3004 418.44 12.1781 417.376 13.2815C416.311 14.3849 415.48 15.6914 414.932 17.1229C414.385 18.5543 414.132 20.0814 414.188 21.6127C414.186 23.2648 414.525 24.8997 415.184 26.415C415.843 27.9303 416.808 29.2935 418.019 30.4192C418.8 31.3703 419.274 32.5352 419.379 33.7607C419.463 34.2769 419.505 34.7991 419.504 35.3221L419.52 35.7437ZM431.777 28.9359L431.683 29.0295V29.1076C430.923 30.0108 430.387 31.0809 430.12 32.2305C429.921 33.0763 429.8 33.9388 429.76 34.8069H421.537C421.498 33.9171 421.373 33.0333 421.161 32.168C420.889 30.9268 420.303 29.7762 419.457 28.8266C418.436 27.8994 417.62 26.7687 417.062 25.5074C416.505 24.2461 416.218 22.8821 416.221 21.5034C416.221 19.0187 417.209 16.6357 418.969 14.8788C420.728 13.1218 423.114 12.1348 425.602 12.1348C428.09 12.1348 430.476 13.1218 432.235 14.8788C433.994 16.6357 434.982 19.0187 434.982 21.5034C435.009 22.8989 434.737 24.284 434.185 25.5658C433.632 26.8477 432.811 27.9967 431.777 28.9359Z" fill="#FFCD83"/>
<path d="M430.668 37.3051H420.489C420.314 37.3031 420.141 37.2662 419.981 37.1964C419.82 37.1267 419.675 37.0255 419.554 36.8989C419.433 36.7723 419.339 36.6229 419.277 36.4593C419.214 36.2958 419.186 36.1215 419.192 35.9466V35.3064C419.186 34.8154 419.149 34.3252 419.082 33.8387C418.958 32.6979 418.514 31.6153 417.8 30.7158C416.543 29.5667 415.542 28.1668 414.86 26.6068C414.179 25.0468 413.833 23.3614 413.845 21.6595C413.845 18.5536 415.08 15.5749 417.279 13.3787C419.478 11.1825 422.461 9.94869 425.571 9.94869C428.681 9.94869 431.663 11.1825 433.862 13.3787C436.061 15.5749 437.297 18.5536 437.297 21.6595C437.29 23.3307 436.943 24.9831 436.277 26.516C435.61 28.0489 434.638 29.43 433.419 30.5753L433.325 30.669C432.605 31.5631 432.165 32.6492 432.059 33.7918C431.961 34.4795 431.925 35.1744 431.95 35.8686C431.947 36.228 431.82 36.5755 431.59 36.8523C431.355 37.1192 431.023 37.2821 430.668 37.3051ZM419.817 35.9154C419.81 36.1097 419.877 36.2996 420.005 36.4463C420.137 36.5701 420.309 36.6422 420.489 36.6493H430.668C430.758 36.6506 430.848 36.6332 430.931 36.5983C431.014 36.5634 431.09 36.5116 431.152 36.4463C431.283 36.3003 431.355 36.1113 431.355 35.9154C431.322 35.1849 431.359 34.4529 431.465 33.7294C431.573 32.4341 432.075 31.2027 432.903 30.2005L433.028 30.0756C434.183 28.9904 435.104 27.6817 435.736 26.2294C436.367 24.7771 436.696 23.2116 436.702 21.6282C436.758 20.1384 436.513 18.6526 435.981 17.2597C435.449 15.8668 434.64 14.5954 433.605 13.5216C432.569 12.4478 431.327 11.5936 429.954 11.0102C428.58 10.4268 427.103 10.1261 425.61 10.1261C424.117 10.1261 422.639 10.4268 421.266 11.0102C419.892 11.5936 418.65 12.4478 417.615 13.5216C416.579 14.5954 415.771 15.8668 415.239 17.2597C414.707 18.6526 414.461 20.1384 414.517 21.6282C414.509 23.2381 414.836 24.832 415.48 26.3081C416.123 27.7842 417.068 29.1099 418.254 30.2005C419.08 31.2054 419.587 32.4345 419.708 33.7294C419.787 34.2461 419.829 34.768 419.833 35.2908V35.7593L419.817 35.9154ZM429.995 35.244H421.177V35.0254C421.135 34.1566 421.01 33.2938 420.802 32.449C420.565 31.2656 420.026 30.1632 419.239 29.2481C418.181 28.2938 417.336 27.1276 416.76 25.8254C416.183 24.5233 415.888 23.1144 415.893 21.6907C415.84 20.3815 416.053 19.0752 416.519 17.8501C416.984 16.6251 417.692 15.5065 418.601 14.5617C419.51 13.6168 420.601 12.865 421.808 12.3515C423.015 11.838 424.313 11.5733 425.625 11.5733C426.937 11.5733 428.236 11.838 429.443 12.3515C430.65 12.865 431.74 13.6168 432.649 14.5617C433.558 15.5065 434.267 16.6251 434.732 17.8501C435.198 19.0752 435.41 20.3815 435.358 21.6907C435.367 23.1106 435.078 24.5167 434.51 25.8184C433.942 27.12 433.107 28.2884 432.059 29.2481V29.3261L431.746 29.2324L432.012 29.3886V29.4667C431.29 30.3503 430.791 31.3947 430.558 32.5115C430.354 33.3353 430.234 34.1775 430.198 35.0254L429.995 35.244ZM421.771 34.6194H429.479C429.531 33.8297 429.651 33.046 429.839 32.2772C430.086 31.0738 430.623 29.9484 431.402 28.9982C431.429 28.9434 431.46 28.8912 431.496 28.8421L431.59 28.7484C432.581 27.8527 433.371 26.7584 433.91 25.5369C434.449 24.3155 434.724 22.9942 434.717 21.6595C434.768 20.4333 434.57 19.2096 434.135 18.0618C433.7 16.914 433.038 15.8658 432.187 14.9803C431.336 14.0948 430.315 13.3902 429.185 12.9088C428.055 12.4275 426.839 12.1794 425.61 12.1794C424.381 12.1794 423.165 12.4275 422.035 12.9088C420.904 13.3902 419.883 14.0948 419.032 14.9803C418.182 15.8658 417.519 16.914 417.084 18.0618C416.65 19.2096 416.452 20.4333 416.503 21.6595C416.496 22.9942 416.77 24.3155 417.309 25.5369C417.848 26.7584 418.639 27.8527 419.63 28.7484C420.517 29.7484 421.136 30.9573 421.428 32.2616C421.605 33.0372 421.72 33.8256 421.771 34.6194Z" fill="#FFCD83"/>
<path d="M419.52 35.7437V35.8842C419.514 36.0216 419.536 36.1587 419.585 36.2874C419.633 36.4161 419.707 36.5339 419.801 36.6337C419.992 36.8118 420.243 36.9121 420.505 36.9148H430.667C430.797 36.9175 430.927 36.8941 431.048 36.8458C431.169 36.7975 431.278 36.7254 431.371 36.6337C431.546 36.4227 431.646 36.1586 431.652 35.8842C431.619 35.1693 431.656 34.4529 431.762 33.7451C431.872 32.5236 432.339 31.3614 433.106 30.4036C433.15 30.3755 433.188 30.3382 433.216 30.2943C434.403 29.1789 435.35 27.8341 436 26.3417C436.651 24.8493 436.991 23.2403 436.999 21.6127C437.056 20.0814 436.803 18.5543 436.255 17.1229C435.708 15.6914 434.877 14.3849 433.812 13.2815C432.747 12.1781 431.471 11.3004 430.059 10.7009C428.647 10.1014 427.128 9.79241 425.594 9.79241C424.06 9.79241 422.541 10.1014 421.129 10.7009C419.717 11.3004 418.44 12.1781 417.376 13.2815C416.311 14.3849 415.48 15.6914 414.932 17.1229C414.385 18.5543 414.132 20.0814 414.188 21.6127C414.186 23.2648 414.525 24.8997 415.184 26.415C415.843 27.9303 416.808 29.2935 418.019 30.4192C418.8 31.3703 419.274 32.5352 419.379 33.7607C419.463 34.2769 419.505 34.7991 419.504 35.3221L419.52 35.7437ZM431.777 28.9359L431.683 29.0295V29.1076C430.923 30.0108 430.387 31.0809 430.12 32.2305C429.921 33.0763 429.8 33.9388 429.76 34.8069H421.537C421.498 33.9171 421.373 33.0333 421.161 32.168C420.889 30.9268 420.303 29.7762 419.457 28.8266C418.436 27.8994 417.62 26.7687 417.062 25.5074C416.505 24.2461 416.218 22.8821 416.221 21.5034C416.221 19.0187 417.209 16.6357 418.969 14.8788C420.728 13.1218 423.114 12.1348 425.602 12.1348C428.09 12.1348 430.476 13.1218 432.235 14.8788C433.994 16.6357 434.982 19.0187 434.982 21.5034C435.009 22.8989 434.737 24.284 434.185 25.5658C433.632 26.8477 432.811 27.9967 431.777 28.9359Z" fill="#FFCD83"/>
<path d="M425.351 14.7267C425.216 14.7491 425.094 14.8187 425.005 14.9231C424.916 15.0274 424.868 15.1598 424.868 15.2966C424.868 15.4334 424.916 15.5658 425.005 15.6702C425.094 15.7745 425.216 15.8441 425.351 15.8665C426.973 15.8665 428.528 16.5098 429.674 17.6547C430.82 18.7997 431.464 20.3525 431.464 21.9718C431.487 22.1067 431.557 22.2294 431.661 22.3178C431.766 22.4063 431.898 22.4548 432.035 22.4548C432.172 22.4548 432.305 22.4063 432.409 22.3178C432.514 22.2294 432.583 22.1067 432.606 21.9718C432.61 21.0192 432.425 20.0752 432.062 19.1943C431.699 18.3134 431.165 17.5131 430.49 16.8395C429.816 16.1659 429.014 15.6324 428.132 15.2698C427.25 14.9071 426.305 14.7226 425.351 14.7267Z" fill="#FFCD83"/>
<path d="M425.554 7.13818C425.819 7.13818 426.074 7.03289 426.262 6.84548C426.449 6.65807 426.555 6.40389 426.555 6.13886V1.45454C426.551 1.18926 426.445 0.935702 426.258 0.74665C426.072 0.557598 425.82 0.44762 425.554 0.439609C425.29 0.447727 425.039 0.558231 424.856 0.747695C424.672 0.93716 424.569 1.19069 424.569 1.45454V6.13886C424.573 6.4 424.678 6.64959 424.861 6.83571C425.044 7.02184 425.293 7.13017 425.554 7.13818Z" fill="#FFCD83"/>
<path d="M425.555 7.45042C425.209 7.44631 424.879 7.30631 424.636 7.06078C424.393 6.81525 424.257 6.48399 424.257 6.13882V1.4545C424.237 1.2713 424.256 1.08592 424.312 0.910458C424.369 0.734991 424.462 0.573373 424.585 0.436139C424.708 0.298904 424.859 0.189136 425.027 0.113988C425.196 0.0388399 425.378 0 425.563 0C425.747 0 425.93 0.0388399 426.098 0.113988C426.267 0.189136 426.417 0.298904 426.541 0.436139C426.664 0.573373 426.757 0.734991 426.813 0.910458C426.869 1.08592 426.888 1.2713 426.868 1.4545V6.13882C426.868 6.48668 426.73 6.82029 426.483 7.06626C426.237 7.31224 425.903 7.45042 425.555 7.45042ZM425.555 0.673784C425.374 0.681831 425.203 0.759398 425.077 0.890307C424.952 1.02122 424.882 1.19536 424.883 1.37643V6.13882C424.89 6.31602 424.963 6.48425 425.087 6.61109C425.211 6.73794 425.378 6.81443 425.555 6.82585C425.646 6.82799 425.736 6.81168 425.821 6.77791C425.905 6.74414 425.982 6.69361 426.046 6.62938C426.11 6.56515 426.161 6.48856 426.195 6.40424C426.229 6.31992 426.245 6.22962 426.243 6.13882V1.4545C426.251 1.35764 426.24 1.26005 426.21 1.16765C426.179 1.07526 426.131 0.989976 426.066 0.916978C426.002 0.843979 425.923 0.784785 425.836 0.742981C425.748 0.701178 425.652 0.677637 425.555 0.673784Z" fill="#FFCD83"/>
<path d="M425.555 7.45042C425.209 7.44631 424.879 7.30631 424.636 7.06078C424.393 6.81525 424.257 6.48399 424.257 6.13882V1.4545C424.237 1.2713 424.256 1.08592 424.312 0.910458C424.369 0.734991 424.462 0.573373 424.585 0.436139C424.708 0.298904 424.859 0.189136 425.027 0.113988C425.196 0.0388399 425.378 0 425.563 0C425.747 0 425.93 0.0388399 426.098 0.113988C426.267 0.189136 426.417 0.298904 426.541 0.436139C426.664 0.573373 426.757 0.734991 426.813 0.910458C426.869 1.08592 426.888 1.2713 426.868 1.4545V6.13882C426.868 6.48668 426.73 6.82029 426.483 7.06626C426.237 7.31224 425.903 7.45042 425.555 7.45042ZM425.555 0.673784C425.374 0.681831 425.203 0.759398 425.077 0.890307C424.952 1.02122 424.882 1.19536 424.883 1.37643V6.13882C424.89 6.31602 424.963 6.48425 425.087 6.61109C425.211 6.73794 425.378 6.81443 425.555 6.82585C425.646 6.82799 425.736 6.81168 425.821 6.77791C425.905 6.74414 425.982 6.69361 426.046 6.62938C426.11 6.56515 426.161 6.48856 426.195 6.40424C426.229 6.31992 426.245 6.22962 426.243 6.13882V1.4545C426.251 1.35764 426.24 1.26005 426.21 1.16765C426.179 1.07526 426.131 0.989976 426.066 0.916978C426.002 0.843979 425.923 0.784785 425.836 0.742981C425.748 0.701178 425.652 0.677637 425.555 0.673784Z" fill="#FFCD83"/>
<path d="M435.733 4.18698L433.184 8.1218C433.106 8.23126 433.051 8.35502 433.022 8.48591C432.992 8.61681 432.989 8.75224 433.012 8.88437C433.036 9.01651 433.085 9.14273 433.157 9.25573C433.23 9.36873 433.324 9.46627 433.434 9.54271C433.592 9.64844 433.776 9.70794 433.966 9.71447C434.135 9.7158 434.301 9.67152 434.447 9.58632C434.593 9.50112 434.713 9.37816 434.794 9.23042L437.296 5.35806C437.378 5.25501 437.437 5.13593 437.469 5.00857C437.502 4.88121 437.508 4.74841 437.485 4.6188C437.463 4.4892 437.414 4.3657 437.341 4.25633C437.268 4.14696 437.173 4.05417 437.061 3.98399C436.858 3.83571 436.604 3.77383 436.355 3.81186C436.106 3.84989 435.882 3.98474 435.733 4.18698Z" fill="#FFCD83"/>
<path d="M433.904 10.0424C433.603 10.0371 433.313 9.92881 433.082 9.73552C432.852 9.54223 432.695 9.27572 432.637 8.9806C432.58 8.61975 432.664 8.25068 432.872 7.95005L435.42 4.01523C435.518 3.86961 435.645 3.74584 435.793 3.65176C435.941 3.55769 436.107 3.49536 436.28 3.46873C436.444 3.43681 436.613 3.44125 436.775 3.48172C436.937 3.52219 437.088 3.59771 437.218 3.70294C437.363 3.80179 437.486 3.92884 437.58 4.07643C437.674 4.22403 437.737 4.38911 437.765 4.56173C437.791 4.7316 437.782 4.90486 437.739 5.07117C437.696 5.23749 437.62 5.39347 437.515 5.52982L434.998 9.4178C434.886 9.60828 434.726 9.76616 434.534 9.87574C434.342 9.98532 434.125 10.0428 433.904 10.0424ZM435.936 4.35874L433.388 8.30918C433.326 8.38775 433.283 8.47895 433.262 8.57617C433.24 8.67339 433.24 8.77421 433.263 8.8713C433.288 9.00092 433.352 9.11993 433.446 9.21273C433.54 9.30554 433.66 9.36783 433.79 9.39145C433.92 9.41507 434.054 9.39893 434.175 9.34512C434.296 9.29132 434.397 9.20236 434.466 9.0899L436.999 5.15508C437.058 5.08729 437.101 5.00735 437.126 4.92097C437.15 4.83459 437.155 4.74391 437.14 4.65542C437.129 4.56388 437.099 4.47581 437.05 4.39753C437.001 4.31924 436.936 4.25267 436.859 4.2026C436.793 4.15082 436.718 4.11301 436.637 4.09152C436.556 4.07003 436.472 4.06532 436.39 4.07769C436.208 4.11132 436.047 4.21163 435.936 4.35874Z" fill="#FFCD83"/>
<path d="M418.284 7.98128L415.814 3.99962C415.67 3.77554 415.443 3.6172 415.182 3.55877C414.922 3.50034 414.649 3.54652 414.423 3.68733C414.2 3.83693 414.044 4.06739 413.989 4.32978C413.933 4.59218 413.982 4.86583 414.126 5.09263L416.596 9.07429C416.698 9.22559 416.831 9.35336 416.987 9.44904C417.139 9.51726 417.305 9.54933 417.471 9.54272C417.662 9.54386 417.849 9.48364 418.003 9.37097C418.216 9.21691 418.363 8.98846 418.415 8.731C418.467 8.47354 418.421 8.20591 418.284 7.98128Z" fill="#FFCD83"/>
<path d="M417.471 9.87064C417.255 9.87422 417.04 9.82604 416.846 9.73011C416.632 9.62744 416.453 9.46464 416.33 9.26168L413.844 5.2644C413.659 4.96878 413.596 4.61288 413.669 4.27195C413.742 3.93102 413.945 3.63178 414.235 3.43752C414.382 3.33843 414.549 3.27067 414.724 3.23844C414.898 3.20621 415.078 3.21019 415.251 3.25014C415.419 3.28557 415.578 3.35514 415.718 3.45454C415.858 3.55393 415.976 3.68101 416.064 3.82787L418.534 7.82515C418.713 8.12098 418.774 8.47331 418.705 8.8119C418.635 9.1505 418.44 9.45048 418.159 9.65204C417.956 9.79085 417.717 9.86688 417.471 9.87064ZM414.97 3.79665C414.833 3.80141 414.699 3.83888 414.579 3.90595C414.429 4.01571 414.326 4.17829 414.291 4.36088C414.256 4.54346 414.292 4.73244 414.391 4.88965L416.862 8.87132C416.929 8.97829 417.02 9.06894 417.127 9.13676C417.232 9.19706 417.351 9.22881 417.471 9.22881C417.592 9.22881 417.711 9.19706 417.815 9.13676C417.969 9.02653 418.076 8.86228 418.113 8.67694C418.151 8.49161 418.117 8.29889 418.019 8.13744L415.548 4.15578C415.45 4.00704 415.299 3.90101 415.126 3.8591L414.97 3.79665Z" fill="#FFCD83"/>
<path d="M417.471 9.87064C417.255 9.87422 417.04 9.82604 416.846 9.73011C416.632 9.62744 416.453 9.46464 416.33 9.26168L413.844 5.2644C413.659 4.96878 413.596 4.61288 413.669 4.27195C413.742 3.93102 413.945 3.63178 414.235 3.43752C414.382 3.33843 414.549 3.27067 414.724 3.23844C414.898 3.20621 415.078 3.21019 415.251 3.25014C415.419 3.28557 415.578 3.35514 415.718 3.45454C415.858 3.55393 415.976 3.68101 416.064 3.82787L418.534 7.82515C418.713 8.12098 418.774 8.47331 418.705 8.8119C418.635 9.1505 418.44 9.45048 418.159 9.65204C417.956 9.79085 417.717 9.86688 417.471 9.87064ZM414.97 3.79665C414.833 3.80141 414.699 3.83888 414.579 3.90595C414.429 4.01571 414.326 4.17829 414.291 4.36088C414.256 4.54346 414.292 4.73244 414.391 4.88965L416.862 8.87132C416.929 8.97829 417.02 9.06894 417.127 9.13676C417.232 9.19706 417.351 9.22881 417.471 9.22881C417.592 9.22881 417.711 9.19706 417.815 9.13676C417.969 9.02653 418.076 8.86228 418.113 8.67694C418.151 8.49161 418.117 8.29889 418.019 8.13744L415.548 4.15578C415.45 4.00704 415.299 3.90101 415.126 3.8591L414.97 3.79665Z" fill="#FFCD83"/>
<path d="M408.763 11.0729C408.532 10.9555 408.264 10.9322 408.017 11.0079C407.769 11.0837 407.56 11.2525 407.434 11.4789C407.364 11.5942 407.319 11.7229 407.301 11.8567C407.284 11.9904 407.295 12.1264 407.333 12.2558C407.371 12.3851 407.436 12.5051 407.524 12.6079C407.611 12.7108 407.719 12.7942 407.841 12.853L411.859 15.1171H411.953C412.07 15.1724 412.198 15.2042 412.328 15.2108C412.51 15.2113 412.69 15.1603 412.844 15.0636C412.999 14.9669 413.124 14.8285 413.203 14.6642C413.296 14.423 413.296 14.156 413.203 13.9148C413.172 13.7884 413.113 13.6701 413.033 13.5678C412.952 13.4655 412.85 13.3816 412.734 13.3214L408.763 11.0729Z" fill="#FFCD83"/>
<path d="M412.281 15.5543C412.109 15.5456 411.94 15.5087 411.78 15.445H411.686L407.668 13.1653C407.515 13.0878 407.379 12.9801 407.269 12.8485C407.159 12.717 407.077 12.5645 407.027 12.4002C406.975 12.2273 406.958 12.0457 406.977 11.8661C406.995 11.6865 407.05 11.5124 407.137 11.354C407.291 11.062 407.556 10.843 407.872 10.7451C408.208 10.6369 408.573 10.6649 408.888 10.8232L412.922 13.0716C413.22 13.241 413.44 13.5218 413.531 13.8523C413.657 14.1681 413.657 14.5203 413.531 14.8361C413.416 15.0646 413.236 15.2544 413.014 15.3821C412.791 15.5097 412.536 15.5696 412.281 15.5543ZM408.044 11.276C407.882 11.3265 407.747 11.4388 407.668 11.5883C407.615 11.6706 407.58 11.7636 407.567 11.8607C407.553 11.9578 407.561 12.0567 407.59 12.1504C407.613 12.2378 407.656 12.3186 407.716 12.3864C407.775 12.4542 407.85 12.507 407.934 12.5407L411.968 14.8048C412.047 14.8482 412.133 14.8753 412.223 14.8846C412.312 14.8939 412.403 14.8852 412.489 14.859C412.575 14.8328 412.654 14.7896 412.723 14.732C412.792 14.6745 412.849 14.6036 412.89 14.5238C412.952 14.3522 412.952 14.1644 412.89 13.9929C412.869 13.9052 412.831 13.8227 412.777 13.7503C412.723 13.6779 412.655 13.617 412.578 13.5713L408.544 11.3228C408.464 11.2925 408.379 11.2766 408.294 11.276H408.044Z" fill="#FFCD83"/>
<path d="M412.281 15.5543C412.109 15.5456 411.94 15.5087 411.78 15.445H411.686L407.668 13.1653C407.515 13.0878 407.379 12.9801 407.269 12.8485C407.159 12.717 407.077 12.5645 407.027 12.4002C406.975 12.2273 406.958 12.0457 406.977 11.8661C406.995 11.6865 407.05 11.5124 407.137 11.354C407.291 11.062 407.556 10.843 407.872 10.7451C408.208 10.6369 408.573 10.6649 408.888 10.8232L412.922 13.0716C413.22 13.241 413.44 13.5218 413.531 13.8523C413.657 14.1681 413.657 14.5203 413.531 14.8361C413.416 15.0646 413.236 15.2544 413.014 15.3821C412.791 15.5097 412.536 15.5696 412.281 15.5543ZM408.044 11.276C407.882 11.3265 407.747 11.4388 407.668 11.5883C407.615 11.6706 407.58 11.7636 407.567 11.8607C407.553 11.9578 407.561 12.0567 407.59 12.1504C407.613 12.2378 407.656 12.3186 407.716 12.3864C407.775 12.4542 407.85 12.507 407.934 12.5407L411.968 14.8048C412.047 14.8482 412.133 14.8753 412.223 14.8846C412.312 14.8939 412.403 14.8852 412.489 14.859C412.575 14.8328 412.654 14.7896 412.723 14.732C412.792 14.6745 412.849 14.6036 412.89 14.5238C412.952 14.3522 412.952 14.1644 412.89 13.9929C412.869 13.9052 412.831 13.8227 412.777 13.7503C412.723 13.6779 412.655 13.617 412.578 13.5713L408.544 11.3228C408.464 11.2925 408.379 11.2766 408.294 11.276H408.044Z" fill="#FFCD83"/>
<path d="M442.424 11.0729L438.359 13.337C438.243 13.3971 438.142 13.4811 438.061 13.5834C437.98 13.6857 437.922 13.8039 437.89 13.9303C437.797 14.1716 437.797 14.4386 437.89 14.6798C437.976 14.8412 438.104 14.9761 438.261 15.0697C438.418 15.1633 438.598 15.2121 438.781 15.2107C438.939 15.2083 439.093 15.1709 439.235 15.1014L443.299 12.8373C443.526 12.7032 443.694 12.4901 443.772 12.2391C443.85 11.9882 443.832 11.7174 443.722 11.4789C443.594 11.2631 443.39 11.1022 443.151 11.0272C442.911 10.9522 442.652 10.9685 442.424 11.0729Z" fill="#FFCD83"/>
<path d="M438.86 15.5387C438.62 15.5411 438.385 15.4765 438.181 15.3523C437.976 15.2282 437.811 15.0493 437.703 14.836C437.553 14.5242 437.525 14.1679 437.625 13.8367C437.67 13.671 437.749 13.5162 437.857 13.382C437.964 13.2478 438.098 13.1368 438.25 13.056L442.331 10.7919C442.494 10.7223 442.669 10.6864 442.846 10.6864C443.024 10.6864 443.199 10.7223 443.362 10.7919C443.522 10.8432 443.669 10.9264 443.796 11.0365C443.922 11.1466 444.025 11.2812 444.097 11.4321C444.233 11.738 444.252 12.0828 444.152 12.4019C444.051 12.721 443.837 12.9925 443.55 13.1653L439.501 15.4138C439.3 15.5062 439.08 15.549 438.86 15.5387ZM442.612 11.3384L438.547 13.6025C438.468 13.6448 438.398 13.7026 438.342 13.7723C438.285 13.842 438.244 13.9223 438.219 14.0085C438.163 14.1864 438.163 14.377 438.219 14.555C438.275 14.6667 438.363 14.76 438.471 14.8236C438.579 14.8873 438.703 14.9187 438.828 14.9141C438.932 14.936 439.038 14.936 439.141 14.9141L443.206 12.6656C443.302 12.6229 443.389 12.5603 443.459 12.4821C443.53 12.4038 443.583 12.3116 443.615 12.2114C443.648 12.1112 443.659 12.0054 443.648 11.9007C443.636 11.796 443.603 11.6949 443.55 11.6038C443.512 11.5293 443.459 11.4633 443.394 11.4096C443.33 11.356 443.255 11.3158 443.175 11.2916C443.076 11.2552 442.97 11.2405 442.865 11.2486C442.76 11.2567 442.657 11.2873 442.565 11.3384H442.612Z" fill="#FFCD83"/>
<path d="M432.027 22.8462C431.796 22.8422 431.576 22.7487 431.412 22.5856C431.249 22.4225 431.156 22.2024 431.152 21.9718C431.152 20.4381 430.543 18.967 429.458 17.8811C428.374 16.7951 426.902 16.183 425.367 16.1788C425.241 16.1956 425.113 16.1853 424.991 16.1486C424.87 16.112 424.758 16.0498 424.662 15.9663C424.566 15.8827 424.49 15.7798 424.437 15.6643C424.385 15.5488 424.358 15.4234 424.358 15.2966C424.358 15.1698 424.385 15.0445 424.437 14.929C424.49 14.8135 424.566 14.7105 424.662 14.627C424.758 14.5434 424.87 14.4813 424.991 14.4446C425.113 14.4079 425.241 14.3976 425.367 14.4144C426.367 14.4116 427.357 14.6076 428.281 14.9909C429.204 15.3743 430.042 15.9373 430.745 16.6473C431.443 17.3461 431.995 18.1769 432.368 19.0911C432.741 20.0053 432.928 20.9846 432.918 21.9718C432.914 22.2051 432.818 22.4275 432.652 22.591C432.485 22.7546 432.261 22.8462 432.027 22.8462ZM425.367 15.039C425.328 15.0293 425.287 15.0286 425.247 15.037C425.208 15.0454 425.171 15.0627 425.139 15.0875C425.107 15.1124 425.082 15.1441 425.064 15.1803C425.046 15.2166 425.037 15.2563 425.037 15.2966C425.037 15.3369 425.046 15.3767 425.064 15.4129C425.082 15.4491 425.107 15.4809 425.139 15.5057C425.171 15.5305 425.208 15.5478 425.247 15.5562C425.287 15.5646 425.328 15.564 425.367 15.5543C427.068 15.5584 428.699 16.2363 429.9 17.4394C431.102 18.6425 431.777 20.2724 431.777 21.9718C431.781 22.0368 431.808 22.0982 431.854 22.1443C431.9 22.1903 431.962 22.2179 432.027 22.2216C432.095 22.2217 432.16 22.1959 432.21 22.1494C432.259 22.103 432.289 22.0394 432.293 21.9718C432.305 21.0684 432.135 20.1719 431.794 19.3352C431.453 18.4984 430.947 17.7384 430.307 17.1001C429.662 16.4463 428.893 15.9273 428.045 15.5735C427.196 15.2196 426.286 15.0379 425.367 15.039Z" fill="#FFCD83"/>
<path d="M430.668 37.3051H420.489C420.314 37.3031 420.141 37.2662 419.981 37.1964C419.82 37.1267 419.675 37.0255 419.554 36.8989C419.433 36.7723 419.339 36.6229 419.277 36.4593C419.214 36.2958 419.186 36.1215 419.192 35.9466V35.3064C419.186 34.8154 419.149 34.3252 419.082 33.8387C418.958 32.6979 418.514 31.6153 417.8 30.7158C416.543 29.5667 415.542 28.1668 414.86 26.6068C414.179 25.0468 413.833 23.3614 413.845 21.6595C413.845 18.5536 415.08 15.5749 417.279 13.3787C419.478 11.1825 422.461 9.94869 425.571 9.94869C428.681 9.94869 431.663 11.1825 433.862 13.3787C436.061 15.5749 437.297 18.5536 437.297 21.6595C437.29 23.3307 436.943 24.9831 436.277 26.516C435.61 28.0489 434.638 29.43 433.419 30.5753L433.325 30.669C432.605 31.5631 432.165 32.6492 432.059 33.7918C431.961 34.4795 431.925 35.1744 431.95 35.8686C431.947 36.228 431.82 36.5755 431.59 36.8523C431.355 37.1192 431.023 37.2821 430.668 37.3051ZM419.817 35.9154C419.81 36.1097 419.877 36.2996 420.005 36.4463C420.137 36.5701 420.309 36.6422 420.489 36.6493H430.668C430.758 36.6506 430.848 36.6332 430.931 36.5983C431.014 36.5634 431.09 36.5116 431.152 36.4463C431.283 36.3003 431.355 36.1113 431.355 35.9154C431.322 35.1849 431.359 34.4529 431.465 33.7294C431.573 32.4341 432.075 31.2027 432.903 30.2005L433.028 30.0756C434.183 28.9904 435.104 27.6817 435.736 26.2294C436.367 24.7771 436.696 23.2116 436.702 21.6282C436.758 20.1384 436.513 18.6526 435.981 17.2597C435.449 15.8668 434.64 14.5954 433.605 13.5216C432.569 12.4478 431.327 11.5936 429.954 11.0102C428.58 10.4268 427.103 10.1261 425.61 10.1261C424.117 10.1261 422.639 10.4268 421.266 11.0102C419.892 11.5936 418.65 12.4478 417.615 13.5216C416.579 14.5954 415.771 15.8668 415.239 17.2597C414.707 18.6526 414.461 20.1384 414.517 21.6282C414.509 23.2381 414.836 24.832 415.48 26.3081C416.123 27.7842 417.068 29.1099 418.254 30.2005C419.08 31.2054 419.587 32.4345 419.708 33.7294C419.787 34.2461 419.829 34.768 419.833 35.2908V35.7593L419.817 35.9154ZM429.995 35.244H421.177V35.0254C421.135 34.1566 421.01 33.2938 420.802 32.449C420.565 31.2656 420.026 30.1632 419.239 29.2481C418.181 28.2938 417.336 27.1276 416.76 25.8254C416.183 24.5233 415.888 23.1144 415.893 21.6907C415.84 20.3815 416.053 19.0752 416.519 17.8501C416.984 16.6251 417.692 15.5065 418.601 14.5617C419.51 13.6168 420.601 12.865 421.808 12.3515C423.015 11.838 424.313 11.5733 425.625 11.5733C426.937 11.5733 428.236 11.838 429.443 12.3515C430.65 12.865 431.74 13.6168 432.649 14.5617C433.558 15.5065 434.267 16.6251 434.732 17.8501C435.198 19.0752 435.41 20.3815 435.358 21.6907C435.367 23.1106 435.078 24.5167 434.51 25.8184C433.942 27.12 433.107 28.2884 432.059 29.2481V29.3261L431.746 29.2324L432.012 29.3886V29.4667C431.29 30.3503 430.791 31.3947 430.558 32.5115C430.354 33.3353 430.234 34.1775 430.198 35.0254L429.995 35.244ZM421.771 34.6194H429.479C429.531 33.8297 429.651 33.046 429.839 32.2772C430.086 31.0738 430.623 29.9484 431.402 28.9982C431.429 28.9434 431.46 28.8912 431.496 28.8421L431.59 28.7484C432.581 27.8527 433.371 26.7584 433.91 25.5369C434.449 24.3155 434.724 22.9942 434.717 21.6595C434.768 20.4333 434.57 19.2096 434.135 18.0618C433.7 16.914 433.038 15.8658 432.187 14.9803C431.336 14.0948 430.315 13.3902 429.185 12.9088C428.055 12.4275 426.839 12.1794 425.61 12.1794C424.381 12.1794 423.165 12.4275 422.035 12.9088C420.904 13.3902 419.883 14.0948 419.032 14.9803C418.182 15.8658 417.519 16.914 417.084 18.0618C416.65 19.2096 416.452 20.4333 416.503 21.6595C416.496 22.9942 416.77 24.3155 417.309 25.5369C417.848 26.7584 418.639 27.8527 419.63 28.7484C420.517 29.7484 421.136 30.9573 421.428 32.2616C421.605 33.0372 421.72 33.8256 421.771 34.6194Z" fill="#FFCD83"/>
<path d="M435.733 4.18698L433.184 8.1218C433.106 8.23126 433.051 8.35502 433.022 8.48591C432.992 8.61681 432.989 8.75224 433.012 8.88437C433.036 9.01651 433.085 9.14273 433.157 9.25573C433.23 9.36873 433.324 9.46627 433.434 9.54271C433.592 9.64844 433.776 9.70794 433.966 9.71447C434.135 9.7158 434.301 9.67152 434.447 9.58632C434.593 9.50112 434.713 9.37816 434.794 9.23042L437.296 5.35806C437.378 5.25501 437.437 5.13593 437.469 5.00857C437.502 4.88121 437.508 4.74841 437.485 4.6188C437.463 4.4892 437.414 4.3657 437.341 4.25633C437.268 4.14696 437.173 4.05417 437.061 3.98399C436.858 3.83571 436.604 3.77383 436.355 3.81186C436.106 3.84989 435.882 3.98474 435.733 4.18698Z" fill="#FFCD83"/>
<path d="M442.424 11.0729L438.359 13.337C438.243 13.3971 438.142 13.4811 438.061 13.5834C437.98 13.6857 437.922 13.8039 437.89 13.9303C437.797 14.1716 437.797 14.4386 437.89 14.6798C437.976 14.8412 438.104 14.9761 438.261 15.0697C438.418 15.1633 438.598 15.2121 438.781 15.2107C438.939 15.2083 439.093 15.1709 439.235 15.1014L443.299 12.8373C443.526 12.7032 443.694 12.4901 443.772 12.2391C443.85 11.9882 443.832 11.7174 443.722 11.4789C443.594 11.2631 443.39 11.1022 443.151 11.0272C442.911 10.9522 442.652 10.9685 442.424 11.0729Z" fill="#FFCD83"/>
<path d="M425.554 7.13818C425.819 7.13818 426.074 7.03289 426.262 6.84548C426.449 6.65807 426.555 6.40389 426.555 6.13886V1.45454C426.551 1.18926 426.445 0.935702 426.258 0.74665C426.072 0.557598 425.82 0.44762 425.554 0.439609C425.29 0.447727 425.039 0.558231 424.856 0.747695C424.672 0.93716 424.569 1.19069 424.569 1.45454V6.13886C424.573 6.4 424.678 6.64959 424.861 6.83571C425.044 7.02184 425.293 7.13017 425.554 7.13818Z" fill="#FFCD83"/>
<path d="M433.904 10.0424C433.603 10.0371 433.313 9.92881 433.082 9.73552C432.852 9.54223 432.695 9.27572 432.637 8.9806C432.58 8.61975 432.664 8.25068 432.872 7.95005L435.42 4.01523C435.518 3.86961 435.645 3.74584 435.793 3.65176C435.941 3.55769 436.107 3.49536 436.28 3.46873C436.444 3.43681 436.613 3.44125 436.775 3.48172C436.937 3.52219 437.088 3.59771 437.218 3.70294C437.363 3.80179 437.486 3.92884 437.58 4.07643C437.674 4.22403 437.737 4.38911 437.765 4.56173C437.791 4.7316 437.782 4.90486 437.739 5.07117C437.696 5.23749 437.62 5.39347 437.515 5.52982L434.998 9.4178C434.886 9.60828 434.726 9.76616 434.534 9.87574C434.342 9.98532 434.125 10.0428 433.904 10.0424ZM435.936 4.35874L433.388 8.30918C433.326 8.38775 433.283 8.47895 433.262 8.57617C433.24 8.67339 433.24 8.77421 433.263 8.8713C433.288 9.00092 433.352 9.11993 433.446 9.21273C433.54 9.30554 433.66 9.36783 433.79 9.39145C433.92 9.41507 434.054 9.39893 434.175 9.34512C434.296 9.29132 434.397 9.20236 434.466 9.0899L436.999 5.15508C437.058 5.08729 437.101 5.00735 437.126 4.92097C437.15 4.83459 437.155 4.74391 437.14 4.65542C437.129 4.56388 437.099 4.47581 437.05 4.39753C437.001 4.31924 436.936 4.25267 436.859 4.2026C436.793 4.15082 436.718 4.11301 436.637 4.09152C436.556 4.07003 436.472 4.06532 436.39 4.07769C436.208 4.11132 436.047 4.21163 435.936 4.35874Z" fill="#FFCD83"/>
<path d="M418.284 7.98128L415.814 3.99962C415.67 3.77554 415.443 3.6172 415.182 3.55877C414.922 3.50034 414.649 3.54652 414.423 3.68733C414.2 3.83693 414.044 4.06739 413.989 4.32978C413.933 4.59218 413.982 4.86583 414.126 5.09263L416.596 9.07429C416.698 9.22559 416.831 9.35336 416.987 9.44904C417.139 9.51726 417.305 9.54933 417.471 9.54272C417.662 9.54386 417.849 9.48364 418.003 9.37097C418.216 9.21691 418.363 8.98846 418.415 8.731C418.467 8.47354 418.421 8.20591 418.284 7.98128Z" fill="#FFCD83"/>
<path d="M408.763 11.0729C408.532 10.9555 408.264 10.9322 408.017 11.0079C407.769 11.0837 407.56 11.2525 407.434 11.4789C407.364 11.5942 407.319 11.7229 407.301 11.8567C407.284 11.9904 407.295 12.1264 407.333 12.2558C407.371 12.3851 407.436 12.5051 407.524 12.6079C407.611 12.7108 407.719 12.7942 407.841 12.853L411.859 15.1171H411.953C412.07 15.1724 412.198 15.2042 412.328 15.2108C412.51 15.2113 412.69 15.1603 412.844 15.0636C412.999 14.9669 413.124 14.8285 413.203 14.6642C413.296 14.423 413.296 14.156 413.203 13.9148C413.172 13.7884 413.113 13.6701 413.033 13.5678C412.952 13.4655 412.85 13.3816 412.734 13.3214L408.763 11.0729Z" fill="#FFCD83"/>
<path d="M438.86 15.5387C438.62 15.5411 438.385 15.4765 438.181 15.3523C437.976 15.2282 437.811 15.0493 437.703 14.836C437.553 14.5242 437.525 14.1679 437.625 13.8367C437.67 13.671 437.749 13.5162 437.857 13.382C437.964 13.2478 438.098 13.1368 438.25 13.056L442.331 10.7919C442.494 10.7223 442.669 10.6864 442.846 10.6864C443.024 10.6864 443.199 10.7223 443.362 10.7919C443.522 10.8432 443.669 10.9264 443.796 11.0365C443.922 11.1466 444.025 11.2812 444.097 11.4321C444.233 11.738 444.252 12.0828 444.152 12.4019C444.051 12.721 443.837 12.9925 443.55 13.1653L439.501 15.4138C439.3 15.5062 439.08 15.549 438.86 15.5387ZM442.612 11.3384L438.547 13.6025C438.468 13.6448 438.398 13.7026 438.342 13.7723C438.285 13.842 438.244 13.9223 438.219 14.0085C438.163 14.1864 438.163 14.377 438.219 14.555C438.275 14.6667 438.363 14.76 438.471 14.8236C438.579 14.8873 438.703 14.9187 438.828 14.9141C438.932 14.936 439.038 14.936 439.141 14.9141L443.206 12.6656C443.302 12.6229 443.389 12.5603 443.459 12.4821C443.53 12.4038 443.583 12.3116 443.615 12.2114C443.648 12.1112 443.659 12.0054 443.648 11.9007C443.636 11.796 443.603 11.6949 443.55 11.6038C443.512 11.5293 443.459 11.4633 443.394 11.4096C443.33 11.356 443.255 11.3158 443.175 11.2916C443.076 11.2552 442.97 11.2405 442.865 11.2486C442.76 11.2567 442.657 11.2873 442.565 11.3384H442.612Z" fill="#FFCD83"/>
<path fill-rule="evenodd" clip-rule="evenodd" d="M421.114 38.1483H429.979C430.192 38.1355 430.405 38.1664 430.606 38.2391C430.806 38.3119 430.99 38.4248 431.145 38.5711C431.3 38.7174 431.424 38.8939 431.508 39.0897C431.593 39.2855 431.636 39.4965 431.636 39.7097C431.608 40.1391 431.415 40.541 431.097 40.8319C430.78 41.1228 430.362 41.2801 429.932 41.2712H421.114C420.699 41.2712 420.301 41.1067 420.008 40.8138C419.715 40.521 419.55 40.1238 419.55 39.7097C419.55 39.2956 419.715 38.8984 420.008 38.6056C420.301 38.3128 420.699 38.1483 421.114 38.1483Z" fill="#FFCD83"/>
<path fill-rule="evenodd" clip-rule="evenodd" d="M422.443 42.3018H428.697C428.911 42.2867 429.126 42.316 429.329 42.3877C429.531 42.4594 429.717 42.5721 429.874 42.7186C430.031 42.8651 430.156 43.0423 430.241 43.2393C430.326 43.4362 430.37 43.6486 430.37 43.8632C430.345 44.2884 430.158 44.688 429.847 44.9788C429.535 45.2697 429.123 45.4293 428.697 45.4246H422.443C422.018 45.4246 421.61 45.256 421.31 44.9559C421.009 44.6557 420.84 44.2486 420.84 43.8242C420.84 43.3997 421.009 42.9926 421.31 42.6924C421.61 42.3923 422.018 42.2237 422.443 42.2237V42.3018Z" fill="#FFCD83"/>
<path fill-rule="evenodd" clip-rule="evenodd" d="M434.263 109.974V50.2963H417.956V109.974H434.263ZM0 31.9026H24.296C34.719 31.9026 42.5987 33.3599 47.9353 36.2746C53.2719 39.1893 55.9349 44.3264 55.9245 51.686C56.0678 55.6707 54.9757 59.6024 52.7976 62.944C51.8 64.4475 50.4937 65.722 48.9654 66.683C47.437 67.644 45.7216 68.2696 43.9329 68.5183V69.0648C46.4512 69.5346 48.8621 70.4607 51.0466 71.7973C53.2278 73.1797 54.9731 75.1501 56.0809 77.4809C57.4422 80.5759 58.0785 83.9403 57.9414 87.318C58.0844 90.4968 57.4636 93.6636 56.1309 96.5539C54.7981 99.4441 52.7921 101.974 50.2805 103.932C45.1419 107.96 38.1273 109.974 29.2365 109.974H0V31.9026ZM16.5256 62.8659H26.1096C30.925 62.8659 34.2447 62.1008 36.0687 60.5706C37.0305 59.7576 37.7887 58.7314 38.2828 57.5738C38.7768 56.4161 38.9931 55.1592 38.9142 53.9032C39.0075 52.6454 38.7554 51.3861 38.1851 50.2607C37.6148 49.1354 36.748 48.1868 35.6779 47.517C33.4682 46.1637 30.0026 45.4871 25.2809 45.4871H16.5256V62.8659ZM16.5256 75.982V96.2807H27.3603C32.3112 96.2807 35.7769 95.3334 37.7573 93.4388C38.7576 92.4081 39.5359 91.1835 40.0441 89.8408C40.5523 88.498 40.7797 87.0655 40.7122 85.6317C40.7579 84.3049 40.5 82.9853 39.9582 81.7731C39.4164 80.5609 38.6048 79.4882 37.5853 78.6364C35.6153 76.8147 32.0038 75.9039 26.7506 75.9039L16.5256 75.982ZM73.5289 109.974V31.9026H90.0546V96.3119H121.793V109.974H73.5289ZM197.932 82.4307V31.9026H181.407V79.5889C181.407 85.6317 180.156 90.0818 177.686 92.9236C175.216 95.7654 171.432 97.1863 165.976 97.1863C160.519 97.1863 156.892 95.9215 154.312 93.2515C151.733 90.5814 150.372 86.1157 150.372 79.6982V31.9026H133.8V82.1809C133.8 90.8521 136.499 97.8473 141.898 103.167C147.298 108.486 155.177 111.088 165.538 110.974C171.769 111.203 177.963 109.928 183.596 107.258C188.12 104.983 191.856 101.403 194.321 96.9833C196.743 92.5175 197.986 87.5092 197.932 82.4307ZM262.034 109.974H217.069V31.9026H262.049V45.4871H233.595V62.6629H260.079V76.2162H233.595V96.3119H262.049L262.034 109.974ZM325.244 38.4919C320.658 34.099 313.331 31.9026 303.262 31.9026H278.247V109.974H294.772V82.2121H301.886C309.464 82.2121 315.446 81.0098 319.834 78.6052C323.975 76.5537 327.337 73.2173 329.418 69.096C331.309 65.0983 332.281 60.7291 332.264 56.3079C332.264 48.7401 329.929 42.8014 325.26 38.4919H325.244ZM294.835 45.4871H302.386C311.142 45.4871 315.519 49.2762 315.519 56.8544C315.519 61.0182 314.133 64.0422 311.361 65.9263C308.031 67.9172 304.182 68.8688 300.307 68.6588H294.835V45.4871ZM369.787 31.9026C380.449 31.9026 388.293 33.8336 393.316 37.6955C398.34 41.5575 400.894 47.4337 400.977 55.3242C401.044 58.5681 400.331 61.7808 398.898 64.6928C397.601 67.3125 395.769 69.6317 393.52 71.5006C391.361 73.3068 388.968 74.8141 386.406 75.982L409.404 109.974H391.018L372.413 80.0261H363.548V109.974H347.023V31.9026H369.787ZM368.583 45.4559H363.548V66.5821H368.911C374.383 66.5821 378.287 65.6713 380.621 63.8496C381.835 62.8952 382.798 61.6601 383.427 60.251C384.057 58.8419 384.333 57.301 384.233 55.7614C384.233 52.0451 382.966 49.4219 380.402 47.9542C377.838 46.4864 373.992 45.4871 368.583 45.4871V45.4559ZM521.894 109.974H500.882L466.845 50.9521H466.408L466.845 62.1008C467.064 65.817 467.247 69.5332 467.393 73.2495V109.974H452.618V31.9026H473.521L507.448 90.3784H507.776C507.776 86.7403 507.589 83.1334 507.448 79.5577L507.01 68.8462V31.9026H521.894V109.974ZM555.211 109.974H571.753V45.7057H593V31.9026H533.995V45.6745H555.211V109.974Z" fill="white"/>
</svg>
